<?xml version="1.0" encoding="iso-8859-1"?>
<!-- Generator: Adobe Illustrator 19.0.0, SVG Export Plug-In . SVG Version: 6.00 Build 0)  -->
<svg version="1.1" id="Layer_1" xmlns="http://www.w3.org/2000/svg" xmlns:xlink="http://www.w3.org/1999/xlink" x="0px" y="0px"
	 viewBox="0 0 512 512" style="enable-background:new 0 0 512 512;" xml:space="preserve">
<g>
	<g>
		<path d="M457.767,31.22c-36.893-36.886-148.228,34.647-234.26,120.68C142.511,232.898,74.379,336.318,97.461,378.928l-94.52,94.52
			c-3.92,3.922-3.92,10.277,0,14.199c1.961,1.959,4.529,2.94,7.099,2.94s5.138-0.98,7.099-2.94l291.136-291.136
			c3.92-3.922,3.92-10.277,0-14.199c-3.922-3.919-10.277-3.919-14.198,0L113.146,363.243
			c-4.552-29.073,34.912-107.499,124.56-197.145c44.853-44.854,91.999-81.864,132.752-104.213
			c42.656-23.392,65.738-23.844,73.111-16.467c7.378,7.376,6.925,30.456-16.467,73.111
			c-22.348,40.753-59.358,87.899-104.212,132.752c-47.071,47.072-97.948,86.382-139.585,107.85
			c-4.928,2.54-6.864,8.596-4.322,13.523c2.542,4.929,8.597,6.864,13.523,4.322c43.406-22.38,96.104-63.019,144.583-111.497
			C423.12,179.447,494.653,68.107,457.767,31.22z"/>
	</g>
</g>
<g>
	<g>
		<path d="M510.312,444.862c-3.073-4.613-9.309-5.862-13.922-2.784c-52.721,35.147-89.18,29.456-197.403,12.57
			c-8.375-1.308-17.163-2.679-26.403-4.101c-132.629-20.401-166.732,19.375-170.186,23.978c-3.326,4.435-2.499,10.821,1.936,14.147
			c1.832,1.374,3.967,2.043,6.077,2.043c3.002,0,5.953-1.354,7.907-3.958c0.289-0.352,30.473-34.946,151.212-16.364
			c9.226,1.419,18,2.788,26.36,4.093c110.91,17.306,152.41,23.783,211.637-15.702C512.142,455.709,513.388,449.475,510.312,444.862z
			"/>
	</g>
</g>
<g>
</g>
<g>
</g>
<g>
</g>
<g>
</g>
<g>
</g>
<g>
</g>
<g>
</g>
<g>
</g>
<g>
</g>
<g>
</g>
<g>
</g>
<g>
</g>
<g>
</g>
<g>
</g>
<g>
</g>
</svg>
