<?xml version="1.0" ?><svg width="32px" height="32px" viewBox="0 0 32 32" xmlns="http://www.w3.org/2000/svg"><defs><style>.cls-1{fill:none;stroke:#000;stroke-linecap:round;stroke-linejoin:round;}</style></defs><g id="ic-social-media-twitter"><path class="cls-1" d="M29.24,7.92a11.24,11.24,0,0,1-3.17.8A5.79,5.79,0,0,0,28.45,5.8,11.12,11.12,0,0,1,25,7.13,5,5,0,0,0,21.17,5.4a5.34,5.34,0,0,0-5.43,5.3,3.69,3.69,0,0,0,.13,1.19A14.47,14.47,0,0,1,5,6.46a4.22,4.22,0,0,0-.8,2.65A5.53,5.53,0,0,0,6.6,13.62a7.33,7.33,0,0,1-2.39-.8V13a4.94,4.94,0,0,0,4.11,5.17,5.09,5.09,0,0,1-1.46.13,3,3,0,0,1-1.06-.13,5.29,5.29,0,0,0,5,3.71,10.92,10.92,0,0,1-6.75,2.25A4.52,4.52,0,0,1,2.76,24a15.81,15.81,0,0,0,9.4,2.65c9.93,0,14.44-8.22,14.44-15.24V10.7A10.38,10.38,0,0,0,29.24,7.92Z"/></g></svg>